<svg width="10" height="10" viewBox="0 0 10 10" fill="none" xmlns="http://www.w3.org/2000/svg">
<path d="M9.99915 4.9092C10.0495 7.67017 7.85216 9.949 5.09122 9.99916C2.33026 10.0493 0.0512244 7.85175 0.000849125 5.09077C-0.0495261 2.32983 2.14783 0.0509826 4.90881 0.000841222C7.66975 -0.0492988 9.94879 2.14825 9.99915 4.9092Z" fill="black" fill-opacity="0.2"/>
<path d="M4.98236 3.04288C4.93275 3.04288 4.88517 3.02322 4.85009 2.98822C4.81501 2.95322 4.7953 2.90575 4.7953 2.85626V0.640099C4.7953 0.590605 4.81501 0.543138 4.85009 0.50814C4.88517 0.473143 4.93275 0.453481 4.98236 0.453481C5.03197 0.453481 5.07955 0.473143 5.11463 0.50814C5.14971 0.543138 5.16941 0.590605 5.16941 0.640099V2.85626C5.16941 2.90575 5.14971 2.95322 5.11463 2.98822C5.07955 3.02322 5.03197 3.04288 4.98236 3.04288Z" fill="#F4EA2A"/>
<path d="M4.98236 3.04288C4.93562 3.04284 4.89044 3.02539 4.85598 2.99389C4.82152 2.9624 4.80013 2.91917 4.79602 2.87272C4.7951 2.86114 4.79478 2.84951 4.79508 2.8379C4.78573 2.461 4.48726 2.17716 3.90765 1.99405C3.42857 1.8427 2.9444 1.82482 2.93957 1.82464C2.88999 1.82296 2.84311 1.80171 2.80923 1.76555C2.77536 1.72939 2.75727 1.68129 2.75895 1.63182C2.76071 1.58239 2.78203 1.53566 2.81826 1.50188C2.85449 1.46811 2.90266 1.45003 2.95221 1.45163C2.97402 1.45237 3.49306 1.47156 4.0206 1.63824C4.56381 1.80986 4.86145 2.05604 5.01674 2.30843C5.03331 2.2882 5.05116 2.26774 5.07031 2.2471C5.42355 1.86663 6.06788 1.59547 6.98531 1.44121C7.03423 1.43299 7.08443 1.44449 7.12485 1.47319C7.16528 1.50188 7.19262 1.54543 7.20087 1.59424C7.20911 1.64305 7.19759 1.69313 7.16882 1.73346C7.14006 1.77379 7.09641 1.80107 7.04748 1.8093C5.26522 2.10893 5.17379 2.76795 5.16926 2.83909C5.16938 2.84488 5.16941 2.85055 5.16941 2.85626C5.16941 2.88078 5.16457 2.9051 5.15516 2.92775C5.14575 2.9504 5.13201 2.97089 5.11463 2.98822C5.09724 3.00555 5.07655 3.01938 5.05384 3.02875C5.03113 3.03812 5.00694 3.0429 4.98236 3.04288Z" fill="#F4EA2A"/>
<path d="M2.11933 6.10718C2.11933 6.5341 2.19339 6.95683 2.33727 7.35125C2.48115 7.74567 2.69204 8.10405 2.9579 8.40593C3.22376 8.7078 3.53939 8.94726 3.88675 9.11064C4.23411 9.27401 4.60641 9.3581 4.9824 9.3581C5.35838 9.3581 5.73068 9.27401 6.07804 9.11064C6.42541 8.94726 6.74103 8.7078 7.00689 8.40593C7.27275 8.10405 7.48364 7.74567 7.62752 7.35125C7.7714 6.95683 7.84546 6.5341 7.84546 6.10718C7.84546 5.24498 7.54382 4.4181 7.00689 3.80843C6.46996 3.19877 5.74173 2.85626 4.9824 2.85626C4.22306 2.85626 3.49483 3.19877 2.9579 3.80843C2.42098 4.4181 2.11933 5.24498 2.11933 6.10718Z" fill="#FFBB5F"/>
<path d="M2.77403 6.76038C2.77403 4.96497 4.05588 3.50942 5.63698 3.50942C6.20364 3.50942 6.73192 3.69641 7.1764 4.01893C6.65123 3.30821 5.86335 2.85626 4.9824 2.85626C3.40126 2.85626 2.11933 4.31169 2.11933 6.10718C2.11933 7.25917 2.64698 8.2712 3.44297 8.84867C3.02554 8.28374 2.77403 7.55545 2.77403 6.76038Z" fill="white"/>
<path d="M7.68916 7.08569L3.798 3.20367C3.76994 3.17567 3.73187 3.15994 3.69218 3.15994C3.6525 3.15994 3.61443 3.17567 3.58637 3.20367C3.5583 3.23167 3.54254 3.26964 3.54254 3.30924C3.54254 3.34883 3.5583 3.38681 3.58637 3.41481L7.47756 7.29683C7.49145 7.3107 7.50794 7.32171 7.52609 7.32922C7.54425 7.33672 7.56371 7.34059 7.58336 7.34059C7.60301 7.34059 7.62247 7.33672 7.64062 7.32922C7.65878 7.32171 7.67527 7.3107 7.68916 7.29683C7.70306 7.28297 7.71409 7.26651 7.72161 7.2484C7.72913 7.23028 7.733 7.21087 7.733 7.19126C7.733 7.17165 7.72913 7.15224 7.72161 7.13412C7.71409 7.11601 7.70306 7.09955 7.68916 7.08569ZM2.29906 5.0342L6.16533 8.89148C6.17922 8.90535 6.19571 8.91636 6.21387 8.92387C6.23202 8.93137 6.25148 8.93524 6.27113 8.93524C6.29078 8.93524 6.31024 8.93137 6.32839 8.92387C6.34655 8.91636 6.36304 8.90535 6.37693 8.89148C6.39083 8.87763 6.40186 8.86117 6.40939 8.84306C6.41692 8.82495 6.42079 8.80553 6.42079 8.78593C6.42079 8.76632 6.41692 8.74691 6.40939 8.7288C6.40186 8.71069 6.39083 8.69423 6.37693 8.68038L2.51073 4.8231C2.48267 4.7951 2.44461 4.77936 2.40492 4.77935C2.36523 4.77935 2.32716 4.79507 2.29909 4.82306C2.27102 4.85106 2.25525 4.88903 2.25524 4.92862C2.25524 4.96822 2.271 5.0062 2.29906 5.0342Z" fill="#F4EA2A"/>
<path d="M2.51073 7.29683L6.40184 3.41481C6.416 3.401 6.42726 3.38454 6.43499 3.36636C6.44272 3.34818 6.44676 3.32865 6.44687 3.30891C6.44698 3.28916 6.44317 3.26959 6.43565 3.25132C6.42813 3.23306 6.41705 3.21646 6.40305 3.2025C6.38906 3.18854 6.37243 3.17748 6.35412 3.16997C6.33582 3.16247 6.3162 3.15866 6.29641 3.15876C6.27661 3.15887 6.25704 3.1629 6.23882 3.17061C6.2206 3.17831 6.20409 3.18955 6.19025 3.20367L2.29906 7.08569C2.27099 7.1137 2.25523 7.15167 2.25523 7.19127C2.25523 7.23087 2.271 7.26885 2.29907 7.29685C2.32714 7.32485 2.36521 7.34058 2.4049 7.34057C2.4446 7.34057 2.48266 7.32484 2.51073 7.29683ZM7.47756 4.8231L3.61128 8.68038C3.59713 8.69419 3.58587 8.71066 3.57814 8.72884C3.57042 8.74701 3.56638 8.76654 3.56627 8.78629C3.56617 8.80604 3.56998 8.82561 3.57751 8.84387C3.58503 8.86213 3.59611 8.87873 3.61011 8.89269C3.62411 8.90665 3.64074 8.9177 3.65905 8.92521C3.67736 8.93271 3.69697 8.93652 3.71677 8.9364C3.73656 8.93629 3.75613 8.93226 3.77435 8.92455C3.79257 8.91684 3.80908 8.9056 3.82292 8.89148L7.68916 5.0342C7.70345 5.02043 7.71485 5.00396 7.72269 4.98574C7.73053 4.96753 7.73466 4.94794 7.73484 4.92811C7.73501 4.90829 7.73122 4.88863 7.7237 4.87028C7.71617 4.85194 7.70506 4.83527 7.69101 4.82125C7.67696 4.80723 7.66025 4.79615 7.64186 4.78864C7.62347 4.78113 7.60377 4.77736 7.5839 4.77753C7.56403 4.7777 7.54439 4.78182 7.52613 4.78964C7.50788 4.79747 7.49136 4.80884 7.47756 4.8231Z" fill="#F4EA2A"/>
<path d="M5.72111 2.96573C6.291 3.55996 6.64831 4.41291 6.64831 5.36071C6.64831 6.25838 6.32792 7.0711 5.8097 7.65939C5.2916 8.24776 4.57593 8.61163 3.78524 8.61163C3.53498 8.61166 3.28609 8.57477 3.04664 8.50216C3.55633 9.03353 4.23597 9.3581 4.9824 9.3581C6.56372 9.3581 7.84546 7.90259 7.84546 6.10718C7.84546 4.60181 6.94427 3.33564 5.72111 2.96573Z" fill="#6E6E96"/>
<path d="M4.9824 3.00555C6.47857 3.00555 7.69582 4.39694 7.69582 6.10722C7.69582 7.81749 6.47857 9.20888 4.9824 9.20888C3.48622 9.20881 2.26898 7.81746 2.26898 6.10722C2.26898 4.39698 3.48622 3.00555 4.9824 3.00555ZM1.96969 6.10722C1.96969 7.98209 3.32116 9.50747 4.98232 9.50747C6.64352 9.50747 7.99503 7.98217 7.99503 6.10722C7.99503 4.23234 6.64352 2.70697 4.98232 2.70697C3.3212 2.70697 1.96969 4.23231 1.96969 6.10722Z" fill="#F4EA2A"/>
</svg>
