<svg width="43" height="16" viewBox="0 0 43 16" fill="none" xmlns="http://www.w3.org/2000/svg">
<path d="M5.682 5.46202C5.968 5.46202 6.189 5.54002 6.345 5.69602C6.50967 5.85202 6.592 6.06869 6.592 6.34602C6.592 6.41536 6.58333 6.48902 6.566 6.56702C6.55733 6.63636 6.54433 6.69702 6.527 6.74902C6.41433 6.73169 6.28867 6.71869 6.15 6.71002C6.01133 6.69269 5.84667 6.68402 5.656 6.68402C5.28333 6.68402 4.90633 6.71869 4.525 6.78802C4.14367 6.84869 3.77967 6.90069 3.433 6.94402C3.23367 7.40336 3.05167 7.84969 2.887 8.28302C2.72233 8.70769 2.57933 9.09769 2.458 9.45302C2.34533 9.80836 2.25433 10.116 2.185 10.376C2.12433 10.636 2.08967 10.831 2.081 10.961C2.783 10.8137 3.48933 10.688 4.2 10.584C4.91933 10.48 5.67333 10.402 6.462 10.35C6.55733 10.4974 6.63533 10.6577 6.696 10.831C6.76533 11.0044 6.8 11.1907 6.8 11.39C6.8 11.442 6.8 11.4984 6.8 11.559C6.8 11.6197 6.79133 11.6804 6.774 11.741C6.53133 11.7324 6.27567 11.7237 6.007 11.715C5.73833 11.715 5.38733 11.715 4.954 11.715C4.668 11.715 4.395 11.7194 4.135 11.728C3.88367 11.7454 3.628 11.767 3.368 11.793C3.108 11.819 2.83067 11.8537 2.536 11.897C2.25 11.9404 1.925 11.9924 1.561 12.053C1.16233 11.897 0.776666 11.5157 0.403999 10.909C0.551333 10.597 0.754999 10.1247 1.015 9.49202C1.28367 8.85069 1.62167 7.99702 2.029 6.93102C1.639 6.80969 1.38333 6.59302 1.262 6.28102C1.30533 6.23769 1.431 6.18569 1.639 6.12502C1.847 6.05569 2.10267 5.98636 2.406 5.91702C2.536 5.57902 2.64433 5.28436 2.731 5.03302C2.82633 4.78169 2.90867 4.54769 2.978 4.33102C3.04733 4.10569 3.108 3.88902 3.16 3.68102C3.22067 3.46436 3.277 3.23036 3.329 2.97902C3.02567 2.96169 2.78733 2.87936 2.614 2.73202C2.44067 2.57602 2.354 2.37669 2.354 2.13402C2.354 2.06469 2.36267 1.98236 2.38 1.88702C2.406 1.79169 2.432 1.70936 2.458 1.64002C2.63133 1.66602 2.796 1.68336 2.952 1.69202C3.11667 1.70069 3.329 1.70502 3.589 1.70502C4.135 1.70502 4.64633 1.69202 5.123 1.66602C5.59967 1.63136 6.02867 1.59669 6.41 1.56202C6.8 1.52736 7.13367 1.49702 7.411 1.47102C7.68833 1.43636 7.90067 1.41902 8.048 1.41902C8.24733 1.41902 8.425 1.52302 8.581 1.73102C8.737 1.93902 8.854 2.23369 8.932 2.61502C8.66333 2.58902 8.44233 2.57169 8.269 2.56302C8.10433 2.55436 7.957 2.55002 7.827 2.55002C7.35033 2.55002 6.91267 2.57602 6.514 2.62802C6.124 2.67136 5.747 2.71902 5.383 2.77102C5.331 2.84902 5.27033 2.94869 5.201 3.07002C5.14033 3.19136 5.058 3.36036 4.954 3.57702C4.85 3.79369 4.72 4.06669 4.564 4.39602C4.41667 4.72536 4.23467 5.13702 4.018 5.63102C4.34733 5.57902 4.655 5.54002 4.941 5.51402C5.23567 5.47936 5.48267 5.46202 5.682 5.46202Z" fill="white"/>
<path d="M8.58049 6.39802C8.58049 6.24202 8.58916 6.09469 8.60649 5.95602C8.63249 5.81736 8.68016 5.70036 8.74949 5.60502C8.81883 5.50102 8.91416 5.42302 9.03549 5.37102C9.15683 5.31036 9.31716 5.28002 9.51649 5.28002C9.63783 5.28002 9.77216 5.29302 9.91949 5.31902C10.0755 5.34502 10.1882 5.39269 10.2575 5.46202C10.2228 5.60936 10.1925 5.73936 10.1665 5.85202C10.1492 5.96469 10.1318 6.09036 10.1145 6.22902C10.1058 6.35902 10.0972 6.51936 10.0885 6.71002C10.0798 6.89202 10.0712 7.13036 10.0625 7.42502C10.0452 8.01436 10.0148 8.54302 9.97149 9.01102C9.93683 9.47036 9.85016 9.92969 9.71149 10.389C9.71149 10.4237 9.72449 10.441 9.75049 10.441C9.88049 10.3457 10.0278 10.207 10.1925 10.025C10.3572 9.84302 10.5305 9.63936 10.7125 9.41402C10.8945 9.18002 11.0765 8.93302 11.2585 8.67302C11.4405 8.41302 11.6095 8.15736 11.7655 7.90602C11.9735 7.54202 12.2032 7.08702 12.4545 6.54102C12.7058 5.99502 12.9138 5.41002 13.0785 4.78602C13.1305 4.78602 13.1955 4.79902 13.2735 4.82502C13.3602 4.84236 13.4425 4.86836 13.5205 4.90302C13.6072 4.92902 13.6808 4.95936 13.7415 4.99402C13.8108 5.02869 13.8585 5.05902 13.8845 5.08502C13.8672 5.45769 13.7762 5.83902 13.6115 6.22902C13.4555 6.61902 13.2648 6.99602 13.0395 7.36002C12.8142 7.72402 12.5758 8.06636 12.3245 8.38702C12.0732 8.70769 11.8435 8.98502 11.6355 9.21902C11.2195 9.70436 10.7992 10.1377 10.3745 10.519C9.95849 10.9004 9.46016 11.2687 8.87949 11.624C8.65416 11.5374 8.47649 11.4204 8.34649 11.273C8.21649 11.1344 8.15149 10.987 8.15149 10.831C8.15149 10.727 8.17316 10.61 8.21649 10.48C8.26849 10.3414 8.32482 10.168 8.38549 9.96002C8.44616 9.74336 8.49816 9.47469 8.54149 9.15402C8.59349 8.83336 8.61949 8.42602 8.61949 7.93202C8.61949 7.64602 8.61082 7.36002 8.59349 7.07402C8.58482 6.77936 8.58049 6.55402 8.58049 6.39802Z" fill="white"/>
<path d="M18.3466 5.61802C18.312 6.15536 18.2166 6.61902 18.0606 7.00902C17.9046 7.39036 17.6793 7.72836 17.3846 8.02302C17.0986 8.30902 16.7476 8.56902 16.3316 8.80302C15.9156 9.03702 15.4303 9.26236 14.8756 9.47902C14.8756 9.53102 14.8713 9.58736 14.8626 9.64802C14.8626 9.70002 14.8626 9.75636 14.8626 9.81702C14.8626 9.92969 14.8713 10.0467 14.8886 10.168C14.906 10.2894 14.9363 10.402 14.9796 10.506C15.023 10.61 15.0836 10.6967 15.1616 10.766C15.2396 10.8267 15.3393 10.857 15.4606 10.857C15.6946 10.857 15.9243 10.805 16.1496 10.701C16.375 10.597 16.5873 10.4714 16.7866 10.324C16.9946 10.168 17.1853 10.0034 17.3586 9.83002C17.5406 9.64802 17.701 9.48336 17.8396 9.33602C17.9263 9.41402 18 9.48769 18.0606 9.55702C17.6706 10.077 17.2416 10.5104 16.7736 10.857C16.3143 11.195 15.8766 11.4117 15.4606 11.507C14.8626 11.4377 14.3946 11.221 14.0566 10.857C13.7273 10.4844 13.5626 10.038 13.5626 9.51802C13.5626 9.16269 13.6103 8.80302 13.7056 8.43902C13.8096 8.06636 13.9483 7.71102 14.1216 7.37302C14.3036 7.02636 14.5116 6.70136 14.7456 6.39802C14.9883 6.09469 15.244 5.83036 15.5126 5.60502C15.79 5.37969 16.0716 5.20202 16.3576 5.07202C16.6523 4.94202 16.9426 4.87702 17.2286 4.87702C17.6273 4.92902 18 5.17602 18.3466 5.61802ZM17.4496 6.04702C17.2156 6.08169 16.973 6.17702 16.7216 6.33302C16.4703 6.48902 16.232 6.69702 16.0066 6.95702C15.79 7.21702 15.5906 7.52036 15.4086 7.86702C15.2266 8.21369 15.0836 8.58636 14.9796 8.98502C15.673 8.63836 16.2493 8.21369 16.7086 7.71102C17.168 7.19969 17.415 6.64502 17.4496 6.04702Z" fill="white"/>
<path d="M18.9355 10.168C18.9355 9.78669 19.0265 9.25369 19.2085 8.56902C19.3905 7.87569 19.6462 7.06969 19.9755 6.15102C20.5128 4.68635 21.0155 3.46869 21.4835 2.49802C21.9602 1.51869 22.4238 0.756022 22.8745 0.210022C22.9785 0.227355 23.1042 0.270688 23.2515 0.340022C23.4075 0.409355 23.5592 0.487355 23.7065 0.574022C23.8538 0.652022 23.9838 0.734355 24.0965 0.821022C24.2178 0.907688 24.2958 0.977022 24.3305 1.02902C23.6545 1.82636 23.0608 2.68436 22.5495 3.60302C22.0382 4.52169 21.5702 5.57469 21.1455 6.76202C20.7815 7.78469 20.5042 8.70769 20.3135 9.53102C20.1228 10.3457 20.0275 11.026 20.0275 11.572C20.0275 11.7194 20.0275 11.8104 20.0275 11.845C20.0275 11.8797 20.0318 11.9144 20.0405 11.949C19.9192 11.9317 19.8152 11.9014 19.7285 11.858C19.6418 11.8147 19.5855 11.7627 19.5595 11.702C19.5422 11.6587 19.4945 11.5937 19.4165 11.507C19.3385 11.429 19.2692 11.3684 19.2085 11.325C19.1305 11.273 19.0655 11.1387 19.0135 10.922C18.9615 10.6967 18.9355 10.4454 18.9355 10.168Z" fill="white"/>
<path d="M26.9088 8.98502C26.7094 9.61769 26.5101 10.194 26.3108 10.714C26.1114 11.234 25.8991 11.7107 25.6738 12.144C25.4484 12.586 25.2058 12.989 24.9458 13.353C24.6858 13.7257 24.3998 14.0767 24.0878 14.406C23.6891 14.822 23.2774 15.1384 22.8528 15.355C22.4281 15.5804 22.0034 15.693 21.5788 15.693C21.3621 15.693 21.1454 15.667 20.9288 15.615C20.7208 15.5717 20.5258 15.5067 20.3438 15.42C20.1531 15.342 19.9884 15.2467 19.8498 15.134C19.7024 15.03 19.5984 14.9174 19.5378 14.796C19.5378 14.692 19.5984 14.601 19.7198 14.523C19.8238 14.6184 19.9104 14.692 19.9798 14.744C20.0491 14.796 20.1184 14.8394 20.1878 14.874C20.2484 14.9087 20.3178 14.9304 20.3958 14.939C20.4651 14.9477 20.5474 14.952 20.6428 14.952C21.1368 14.952 21.6178 14.8047 22.0858 14.51C22.5624 14.224 23.0088 13.8124 23.4248 13.275C23.8494 12.7464 24.2351 12.1007 24.5818 11.338C24.9284 10.584 25.2231 9.73902 25.4658 8.80302C25.3531 8.97636 25.2144 9.18869 25.0498 9.44002C24.8851 9.69136 24.7031 9.94269 24.5038 10.194C24.3044 10.4367 24.0964 10.6577 23.8798 10.857C23.6718 11.0564 23.4681 11.1907 23.2688 11.26C23.1301 11.2514 22.9828 11.221 22.8268 11.169C22.6794 11.1257 22.5364 11.0607 22.3978 10.974C22.2678 10.8874 22.1508 10.7834 22.0468 10.662C21.9428 10.5407 21.8734 10.402 21.8388 10.246C21.8388 9.99469 21.8474 9.79536 21.8648 9.64802C21.8821 9.49202 21.9124 9.32302 21.9558 9.14102C22.0338 8.81169 22.1464 8.43902 22.2938 8.02302C22.4498 7.60702 22.6274 7.19969 22.8268 6.80102C23.0348 6.39369 23.2601 6.01669 23.5028 5.67002C23.7541 5.31469 24.0141 5.03736 24.2828 4.83802C24.3521 4.83802 24.4388 4.84669 24.5428 4.86402C24.6468 4.87269 24.7551 4.89436 24.8678 4.92902C24.9804 4.96369 25.0888 5.00702 25.1928 5.05902C25.2968 5.10236 25.3878 5.16302 25.4658 5.24102C25.3704 5.32769 25.1624 5.61802 24.8418 6.11202C24.5211 6.60602 24.1658 7.31669 23.7758 8.24402C23.7324 8.33936 23.6804 8.47802 23.6198 8.66002C23.5591 8.84202 23.4984 9.03269 23.4378 9.23202C23.3858 9.43136 23.3381 9.62636 23.2948 9.81702C23.2514 10.0077 23.2298 10.1594 23.2298 10.272C23.2298 10.3414 23.2384 10.3934 23.2558 10.428C23.2818 10.4627 23.3034 10.4887 23.3208 10.506C23.4768 10.48 23.6848 10.3544 23.9448 10.129C24.2048 9.89502 24.4994 9.53536 24.8288 9.05002C25.0368 8.73802 25.2274 8.43036 25.4008 8.12702C25.5741 7.81502 25.7431 7.50302 25.9078 7.19102C26.0811 6.87902 26.2588 6.55836 26.4408 6.22902C26.6228 5.89969 26.8178 5.56169 27.0258 5.21502C27.1384 5.21502 27.2598 5.22802 27.3898 5.25402C27.5198 5.28002 27.6454 5.31469 27.7668 5.35802C27.8881 5.39269 27.9921 5.43602 28.0788 5.48802C28.1741 5.53136 28.2434 5.57902 28.2868 5.63102C28.0181 6.20302 27.7668 6.76202 27.5328 7.30802C27.2988 7.85402 27.0908 8.41302 26.9088 8.98502Z" fill="white"/>
<path d="M30.4871 4.69502C30.7124 4.76436 30.9248 4.92036 31.1241 5.16302C31.3235 5.39702 31.4708 5.65702 31.5661 5.94302C31.4708 6.17702 31.3235 6.45869 31.1241 6.78802C30.9248 7.11736 30.7255 7.45536 30.5261 7.80202C30.3268 8.14002 30.1448 8.46502 29.9801 8.77702C29.8241 9.08036 29.7331 9.33169 29.7071 9.53102C29.8458 9.38369 29.9975 9.21469 30.1621 9.02402C30.3355 8.82469 30.5001 8.62969 30.6561 8.43902C30.8208 8.23969 30.9724 8.06202 31.1111 7.90602C31.2498 7.74136 31.3581 7.62002 31.4361 7.54202C31.6008 7.36869 31.7958 7.16936 32.0211 6.94402C32.2464 6.71002 32.4805 6.49336 32.7231 6.29402C32.9745 6.08602 33.2258 5.91269 33.4771 5.77402C33.7284 5.62669 33.9581 5.55302 34.1661 5.55302C34.3915 5.55302 34.5778 5.63102 34.7251 5.78702C34.8811 5.93436 35.0024 6.09036 35.0891 6.25502C35.0891 6.27236 35.0544 6.29836 34.9851 6.33302C34.9244 6.35902 34.8334 6.44136 34.7121 6.58002C34.5908 6.73602 34.4521 6.95269 34.2961 7.23002C34.1488 7.49869 34.0015 7.79336 33.8541 8.11402C33.7155 8.42602 33.5985 8.74669 33.5031 9.07602C33.4078 9.40536 33.3601 9.70436 33.3601 9.97302C33.3601 10.1897 33.3861 10.3284 33.4381 10.389C33.4988 10.4497 33.5811 10.48 33.6851 10.48C33.7804 10.48 33.8801 10.4584 33.9841 10.415C34.0881 10.3717 34.1705 10.35 34.2311 10.35C34.2658 10.3674 34.2918 10.4064 34.3091 10.467C34.3351 10.519 34.3481 10.5667 34.3481 10.61C34.2788 10.6707 34.1964 10.7314 34.1011 10.792C34.0058 10.8527 33.9061 10.909 33.8021 10.961C33.6981 11.013 33.5941 11.0564 33.4901 11.091C33.3948 11.1257 33.3081 11.143 33.2301 11.143C32.9788 11.143 32.7708 11.104 32.6061 11.026C32.4501 10.9567 32.3244 10.8614 32.2291 10.74C32.1424 10.6187 32.0818 10.4757 32.0471 10.311C32.0125 10.1377 31.9951 9.95569 31.9951 9.76502C31.9951 9.66102 32.0038 9.54402 32.0211 9.41402C32.0384 9.28402 32.0731 9.13236 32.1251 8.95902C32.1771 8.77702 32.2508 8.56469 32.3461 8.32202C32.4415 8.07069 32.5628 7.77169 32.7101 7.42502C32.6928 7.42502 32.5758 7.48569 32.3591 7.60702C32.1425 7.72836 31.9084 7.91469 31.6571 8.16602C31.2498 8.55602 30.8814 8.94169 30.5521 9.32302C30.2314 9.70436 29.9021 10.129 29.5641 10.597C29.3735 10.8657 29.2045 11.091 29.0571 11.273C28.9185 11.4637 28.7971 11.5894 28.6931 11.65C28.5111 11.546 28.3768 11.3987 28.2901 11.208C28.2035 11.026 28.1384 10.8354 28.0951 10.636C28.0951 10.4714 28.1168 10.2634 28.1601 10.012C28.2121 9.76069 28.2771 9.48336 28.3551 9.18002C28.4418 8.86802 28.5458 8.54302 28.6671 8.20502C28.7884 7.86702 28.9228 7.52902 29.0701 7.19102C29.3994 6.42836 29.6985 5.83036 29.9671 5.39702C30.2445 4.96369 30.4178 4.72969 30.4871 4.69502Z" fill="white"/>
<path d="M37.5076 4.69502C37.733 4.76436 37.9453 4.92036 38.1446 5.16302C38.344 5.39702 38.4913 5.65702 38.5866 5.94302C38.4913 6.17702 38.344 6.45869 38.1446 6.78802C37.9453 7.11736 37.746 7.45536 37.5466 7.80202C37.3473 8.14002 37.1653 8.46502 37.0006 8.77702C36.8446 9.08036 36.7536 9.33169 36.7276 9.53102C36.8663 9.38369 37.018 9.21469 37.1826 9.02402C37.356 8.82469 37.5206 8.62969 37.6766 8.43902C37.8413 8.23969 37.993 8.06202 38.1316 7.90602C38.2703 7.74136 38.3786 7.62002 38.4566 7.54202C38.6213 7.36869 38.8163 7.16936 39.0416 6.94402C39.267 6.71002 39.501 6.49336 39.7436 6.29402C39.995 6.08602 40.2463 5.91269 40.4976 5.77402C40.749 5.62669 40.9786 5.55302 41.1866 5.55302C41.412 5.55302 41.5983 5.63102 41.7456 5.78702C41.9016 5.93436 42.023 6.09036 42.1096 6.25502C42.1096 6.27236 42.075 6.29836 42.0056 6.33302C41.945 6.35902 41.854 6.44136 41.7326 6.58002C41.6113 6.73602 41.4726 6.95269 41.3166 7.23002C41.1693 7.49869 41.022 7.79336 40.8746 8.11402C40.736 8.42602 40.619 8.74669 40.5236 9.07602C40.4283 9.40536 40.3806 9.70436 40.3806 9.97302C40.3806 10.1897 40.4066 10.3284 40.4586 10.389C40.5193 10.4497 40.6016 10.48 40.7056 10.48C40.801 10.48 40.9006 10.4584 41.0046 10.415C41.1086 10.3717 41.191 10.35 41.2516 10.35C41.2863 10.3674 41.3123 10.4064 41.3296 10.467C41.3556 10.519 41.3686 10.5667 41.3686 10.61C41.2993 10.6707 41.217 10.7314 41.1216 10.792C41.0263 10.8527 40.9266 10.909 40.8226 10.961C40.7186 11.013 40.6146 11.0564 40.5106 11.091C40.4153 11.1257 40.3286 11.143 40.2506 11.143C39.9993 11.143 39.7913 11.104 39.6266 11.026C39.4706 10.9567 39.345 10.8614 39.2496 10.74C39.163 10.6187 39.1023 10.4757 39.0676 10.311C39.033 10.1377 39.0156 9.95569 39.0156 9.76502C39.0156 9.66102 39.0243 9.54402 39.0416 9.41402C39.059 9.28402 39.0936 9.13236 39.1456 8.95902C39.1976 8.77702 39.2713 8.56469 39.3666 8.32202C39.462 8.07069 39.5833 7.77169 39.7306 7.42502C39.7133 7.42502 39.5963 7.48569 39.3796 7.60702C39.163 7.72836 38.929 7.91469 38.6776 8.16602C38.2703 8.55602 37.902 8.94169 37.5726 9.32302C37.252 9.70436 36.9226 10.129 36.5846 10.597C36.394 10.8657 36.225 11.091 36.0776 11.273C35.939 11.4637 35.8176 11.5894 35.7136 11.65C35.5316 11.546 35.3973 11.3987 35.3106 11.208C35.224 11.026 35.159 10.8354 35.1156 10.636C35.1156 10.4714 35.1373 10.2634 35.1806 10.012C35.2326 9.76069 35.2976 9.48336 35.3756 9.18002C35.4623 8.86802 35.5663 8.54302 35.6876 8.20502C35.809 7.86702 35.9433 7.52902 36.0906 7.19102C36.42 6.42836 36.719 5.83036 36.9876 5.39702C37.265 4.96369 37.4383 4.72969 37.5076 4.69502Z" fill="white"/>
</svg>
