<svg width="22" height="23" viewBox="0 0 22 23" fill="none" xmlns="http://www.w3.org/2000/svg">
<path d="M21.9982 10.8256C22.109 16.914 17.2748 21.9392 11.2007 22.0498C5.12659 22.1603 0.112694 17.3144 0.00186808 11.226C-0.108958 5.13765 4.72525 0.112425 10.7994 0.00185503C16.8735 -0.108712 21.8874 4.73725 21.9982 10.8256Z" fill="black" fill-opacity="0.2"/>
<path d="M10.9612 6.71004C10.8521 6.71004 10.7474 6.66668 10.6702 6.58951C10.5931 6.51233 10.5497 6.40766 10.5497 6.29852V1.41152C10.5497 1.30238 10.5931 1.19771 10.6702 1.12053C10.7474 1.04336 10.8521 1 10.9612 1C11.0704 1 11.175 1.04336 11.2522 1.12053C11.3294 1.19771 11.3728 1.30238 11.3728 1.41152V6.29852C11.3728 6.40766 11.3294 6.51233 11.2522 6.58951C11.175 6.66668 11.0704 6.71004 10.9612 6.71004Z" fill="#F4EA2A"/>
<path d="M10.9612 6.71004C10.8584 6.70997 10.759 6.67149 10.6832 6.60203C10.6074 6.53256 10.5603 6.43724 10.5513 6.33482C10.5493 6.30927 10.5486 6.28364 10.5492 6.25803C10.5286 5.42691 9.87202 4.80099 8.59687 4.3972C7.54288 4.06346 6.4777 4.02403 6.46708 4.02362C6.358 4.01993 6.25486 3.97306 6.18034 3.89332C6.10582 3.81359 6.06603 3.70751 6.06971 3.59844C6.07358 3.48942 6.1205 3.38638 6.2002 3.3119C6.27989 3.23741 6.38587 3.19756 6.4949 3.20107C6.54288 3.20272 7.68477 3.24502 8.84535 3.61259C10.0404 3.99103 10.6952 4.53391 11.0369 5.09045C11.0733 5.04584 11.1126 5.00074 11.1547 4.95523C11.9319 4.11621 13.3494 3.51827 15.3677 3.17811C15.4754 3.15997 15.5858 3.18533 15.6747 3.24861C15.7637 3.3119 15.8238 3.40792 15.842 3.51556C15.8601 3.62319 15.8348 3.73363 15.7715 3.82256C15.7082 3.9115 15.6122 3.97165 15.5045 3.98979C11.5835 4.65054 11.3824 6.10379 11.3724 6.26066C11.3727 6.27342 11.3728 6.28593 11.3728 6.29852C11.3728 6.35259 11.3621 6.40621 11.3414 6.45616C11.3207 6.50611 11.2905 6.55129 11.2522 6.58951C11.214 6.62773 11.1685 6.65823 11.1185 6.67889C11.0685 6.69955 11.0153 6.71008 10.9612 6.71004Z" fill="#F4EA2A"/>
<path d="M4.66255 13.4673C4.66255 14.4087 4.82547 15.3409 5.14202 16.2107C5.45856 17.0805 5.92252 17.8708 6.50742 18.5364C7.09231 19.2021 7.78668 19.7302 8.55088 20.0904C9.31509 20.4507 10.1342 20.6361 10.9613 20.6361C11.7885 20.6361 12.6075 20.4507 13.3717 20.0904C14.136 19.7302 14.8303 19.2021 15.4152 18.5364C16.0001 17.8708 16.4641 17.0805 16.7806 16.2107C17.0972 15.3409 17.2601 14.4087 17.2601 13.4673C17.2601 11.566 16.5965 9.74262 15.4152 8.39821C14.234 7.0538 12.6319 6.29852 10.9613 6.29852C9.29078 6.29852 7.68866 7.0538 6.50742 8.39821C5.32617 9.74262 4.66255 11.566 4.66255 13.4673Z" fill="#FFBB5F"/>
<path d="M6.10288 14.9077C6.10288 10.9486 8.92296 7.73885 12.4014 7.73885C13.6481 7.73885 14.8103 8.15119 15.7881 8.86239C14.6328 7.29514 12.8994 6.29852 10.9613 6.29852C7.4828 6.29852 4.66255 9.50798 4.66255 13.4673C4.66255 16.0077 5.82337 18.2393 7.57457 19.5128C6.65621 18.267 6.10288 16.661 6.10288 14.9077Z" fill="white"/>
<path d="M16.9162 15.6251L8.35564 7.06461C8.2939 7.00287 8.21016 6.96818 8.12284 6.96818C8.03552 6.96818 7.95178 7.00287 7.89004 7.06461C7.8283 7.12635 7.79361 7.21009 7.79361 7.29741C7.79361 7.38472 7.8283 7.46846 7.89004 7.53021L16.4507 16.0907C16.4813 16.1213 16.5175 16.1456 16.5575 16.1621C16.5974 16.1787 16.6402 16.1872 16.6835 16.1872C16.7267 16.1872 16.7695 16.1787 16.8094 16.1621C16.8494 16.1456 16.8857 16.1213 16.9162 16.0907C16.9468 16.0601 16.9711 16.0238 16.9876 15.9839C17.0042 15.944 17.0127 15.9011 17.0127 15.8579C17.0127 15.8147 17.0042 15.7718 16.9876 15.7319C16.9711 15.692 16.9468 15.6557 16.9162 15.6251ZM5.05794 11.1012L13.5638 19.6072C13.5943 19.6378 13.6306 19.662 13.6706 19.6786C13.7105 19.6951 13.7533 19.7037 13.7965 19.7037C13.8398 19.7037 13.8826 19.6951 13.9225 19.6786C13.9625 19.662 13.9987 19.6378 14.0293 19.6072C14.0599 19.5766 14.0842 19.5403 14.1007 19.5004C14.1173 19.4604 14.1258 19.4176 14.1258 19.3744C14.1258 19.3312 14.1173 19.2884 14.1007 19.2484C14.0842 19.2085 14.0599 19.1722 14.0293 19.1416L5.52362 10.6357C5.46189 10.574 5.37816 10.5393 5.29084 10.5393C5.20352 10.5392 5.11978 10.5739 5.05802 10.6356C4.99627 10.6974 4.96157 10.7811 4.96156 10.8684C4.96154 10.9557 4.99621 11.0395 5.05794 11.1012Z" fill="#F4EA2A"/>
<path d="M5.52362 16.0907L14.0841 7.53021C14.1153 7.49977 14.14 7.46345 14.157 7.42336C14.174 7.38328 14.1829 7.34022 14.1832 7.29667C14.1834 7.25313 14.175 7.20997 14.1585 7.16969C14.1419 7.12942 14.1176 7.09282 14.0868 7.06203C14.056 7.03124 14.0194 7.00686 13.9791 6.9903C13.9389 6.97375 13.8957 6.96535 13.8521 6.96559C13.8086 6.96583 13.7655 6.97471 13.7255 6.9917C13.6854 7.0087 13.649 7.03348 13.6186 7.06461L5.05794 15.6251C4.9962 15.6869 4.96152 15.7706 4.96153 15.8579C4.96153 15.9453 4.99623 16.029 5.05798 16.0907C5.11974 16.1525 5.20349 16.1872 5.29081 16.1872C5.37814 16.1872 5.46188 16.1525 5.52362 16.0907ZM16.4507 10.6357L7.94486 19.1416C7.91373 19.1721 7.88895 19.2084 7.87195 19.2485C7.85495 19.2886 7.84608 19.3317 7.84584 19.3752C7.8456 19.4187 7.854 19.4619 7.87055 19.5022C7.88711 19.5424 7.91148 19.579 7.94228 19.6098C7.97307 19.6406 8.00966 19.665 8.04994 19.6815C8.09022 19.6981 8.13338 19.7065 8.17692 19.7062C8.22046 19.706 8.26352 19.6971 8.30361 19.6801C8.3437 19.6631 8.38001 19.6383 8.41045 19.6072L16.9162 11.1012C16.9477 11.0709 16.9727 11.0345 16.99 10.9944C17.0072 10.9542 17.0163 10.911 17.0167 10.8673C17.0171 10.8236 17.0088 10.7802 16.9922 10.7398C16.9757 10.6993 16.9512 10.6626 16.9203 10.6316C16.8894 10.6007 16.8526 10.5763 16.8122 10.5597C16.7717 10.5432 16.7284 10.5348 16.6846 10.5352C16.6409 10.5356 16.5977 10.5447 16.5576 10.5619C16.5174 10.5792 16.4811 10.6043 16.4507 10.6357Z" fill="#F4EA2A"/>
<path d="M12.5865 6.53992C13.8402 7.85029 14.6263 9.73119 14.6263 11.8212C14.6263 13.8007 13.9215 15.5929 12.7814 16.8902C11.6416 18.1877 10.0671 18.99 8.32757 18.99C7.77699 18.9901 7.22942 18.9088 6.70263 18.7486C7.82395 19.9204 9.31918 20.6361 10.9613 20.6361C14.4402 20.6361 17.2601 17.4265 17.2601 13.4673C17.2601 10.1477 15.2774 7.35564 12.5865 6.53992Z" fill="#6E6E96"/>
<path d="M10.9613 6.62774C14.2529 6.62774 16.9309 9.69597 16.9309 13.4674C16.9309 17.2388 14.2529 20.3071 10.9613 20.3071C7.66971 20.3069 4.99177 17.2388 4.99177 13.4674C4.99177 9.69605 7.66971 6.62774 10.9613 6.62774ZM4.33333 13.4674C4.33333 17.6018 7.30658 20.9655 10.9612 20.9655C14.6158 20.9655 17.5891 17.602 17.5891 13.4674C17.5891 9.333 14.6158 5.9693 10.9612 5.9693C7.30667 5.9693 4.33333 9.33292 4.33333 13.4674Z" fill="#F4EA2A"/>
</svg>
